<?xml version="1.0" encoding="UTF-8"?>
<svg version="1.1" xmlns="http://www.w3.org/2000/svg" width="512" height="512">
<path d="M0 0 C0.81663116 -0.0080365 1.63326233 -0.016073 2.47463989 -0.02435303 C37.37950579 -0.28474877 72.95442728 9.78520293 99.375 33.375 C100.65117188 34.47134766 100.65117188 34.47134766 101.953125 35.58984375 C117.77035559 49.39353119 126.875182 62.98201353 129.125 84.0625 C129.23200882 85.83206047 129.31524769 87.60321423 129.375 89.375 C129.41496094 90.29539062 129.45492188 91.21578125 129.49609375 92.1640625 C131.14994591 167.46297838 94.33852766 245.66555278 54.375 307.375 C71.27952806 311.80064898 87.58809535 309.91870733 104.5625 306.75 C113.19935262 305.14383456 120.43375041 303.92790023 128.375 308.375 C131.74023824 312.05696655 132.02392417 314.87628863 131.83203125 319.73046875 C130.26587341 328.79276666 122.17820127 334.95035411 115.14794922 340.13427734 C92.01799172 356.3207885 61.46353305 362.75943571 33.61474609 358.3605957 C32.44575775 358.17705032 31.27676941 357.99350494 30.07235718 357.80439758 C29.18222931 357.66269638 28.29210144 357.52099518 27.375 357.375 C27.30062714 358.02755264 27.22625427 358.68010529 27.14962769 359.35243225 C20.82475586 414.73957045 20.82475586 414.73957045 17.60845947 436.17355347 C17.37389116 437.73682965 17.14338116 439.3007215 16.91741943 440.86526489 C13.74023109 462.69071226 7.49448012 483.69623382 -10.62890625 497.6953125 C-19.03189684 503.22719366 -28.05003615 506.52263701 -37.625 509.375 C-39.30142578 509.88740234 -39.30142578 509.88740234 -41.01171875 510.41015625 C-57.06011023 514.57228432 -75.78413538 514.65283373 -90.6015625 506.796875 C-104.71075352 498.35417848 -113.70132997 485.01047125 -118.625 469.375 C-126.85685211 435.5886157 -124.79708388 398.89502732 -124.625 364.375 C-125.55731445 364.99060791 -126.48962891 365.60621582 -127.45019531 366.24047852 C-128.70099628 367.05772324 -129.9519828 367.87468403 -131.203125 368.69140625 C-131.81430176 369.09605103 -132.42547852 369.5006958 -133.05517578 369.91760254 C-150.15866583 381.03938983 -171.31506664 383.00189484 -191.08325195 379.19384766 C-201.3994672 376.91454325 -211.38035828 373.5238903 -218.4375 365.25 C-220.23825864 360.89026855 -220.47411778 357.01248942 -219.625 352.375 C-216.86560363 346.33227124 -211.36943571 343.82581681 -205.43359375 341.55078125 C-200.71177916 340.09307234 -195.94483106 339.01680168 -191.125 337.9375 C-176.91604946 334.70233142 -168.23075897 330.58822359 -159.625 318.375 C-160.80835938 318.13265625 -161.99171875 317.8903125 -163.2109375 317.640625 C-171.65749316 315.86522294 -179.77181021 314.08454694 -187.625 310.375 C-193.86962107 316.51799071 -199.96145016 322.68485966 -205.625 329.375 C-206.50323991 330.40161208 -207.38220996 331.42759977 -208.26171875 332.453125 C-208.98645386 333.29822632 -208.98645386 333.29822632 -209.72583008 334.16040039 C-210.22880615 334.74684326 -210.73178223 335.33328613 -211.25 335.9375 C-212.28910315 337.14970474 -213.32816478 338.36194507 -214.3671875 339.57421875 C-214.89924805 340.19474121 -215.43130859 340.81526367 -215.97949219 341.45458984 C-217.09037372 342.75105782 -218.20037912 344.04827696 -219.30957031 345.34619141 C-222.58679022 349.17840916 -225.88177157 352.99337191 -229.21630859 356.77587891 C-230.41806112 358.14008671 -231.61041634 359.51256321 -232.80078125 360.88671875 C-239.07180297 367.70304671 -247.72003666 372.58002067 -257 373.6484375 C-268.68371866 374.10048614 -277.44365658 369.3636366 -286.10546875 361.8046875 C-308.25125875 340.44859234 -319.91645464 307.79015455 -329.625 279.375 C-330.18864258 277.7355542 -330.18864258 277.7355542 -330.76367188 276.06298828 C-341.49272559 244.55917676 -349.70427474 212.28021168 -356.1706543 179.64916992 C-356.62075063 177.39626966 -357.08341562 175.1462653 -357.54882812 172.89648438 C-361.14952399 155.3419627 -363.17734345 138.25340503 -363.1875 120.3125 C-363.19040039 119.49735931 -363.19330078 118.68221863 -363.19628906 117.84237671 C-363.19005162 102.47429105 -361.58093106 86.98035784 -357 72.25 C-356.74839111 71.43217041 -356.49678223 70.61434082 -356.23754883 69.77172852 C-348.79959092 46.85076499 -333.96619571 28.75536705 -312.625 17.375 C-270.54541314 -2.98305711 -219.12345137 6.67027581 -176.5390625 20.17578125 C-171.00628973 22.26547874 -171.00628973 22.26547874 -165.4765625 21.37109375 C-164.74179688 20.85675781 -164.00703125 20.34242187 -163.25 19.8125 C-148.76659212 10.60549588 -130.72970291 5.92368643 -113.625 5.375 C-112.46355469 5.33503906 -111.30210937 5.29507812 -110.10546875 5.25390625 C-102.4907439 5.12484312 -95.0161165 5.49905588 -87.4375 6.25 C-86.57680908 6.33419189 -85.71611816 6.41838379 -84.8293457 6.50512695 C-80.22149016 6.99107199 -75.88263564 7.78260361 -71.375 8.875 C-62.93964548 10.29170698 -54.83984387 7.14985154 -46.75390625 4.98046875 C-31.21844427 0.83911936 -16.00515793 0.08760183 0 0 Z " fill="#FCFCFD" transform="translate(371.625,-0.375)"/>
<path d="M0 0 C20.2347052 17.02676413 35.21754121 37.60293419 46.6015625 61.47265625 C46.90465332 62.10026855 47.20774414 62.72788086 47.52001953 63.37451172 C49.05853312 66.69275037 49.6015625 68.60341616 49.6015625 72.34765625 C48.96766602 72.36747559 48.33376953 72.38729492 47.68066406 72.40771484 C19.98928281 72.68556818 19.98928281 72.68556818 -3.26953125 86.05859375 C-6.10769795 89.11027391 -7.71581549 91.51127806 -9.3984375 95.34765625 C-9.69363281 96.00378906 -9.98882812 96.65992188 -10.29296875 97.3359375 C-15.57648908 111.30469672 -12.59949696 127.51233221 -8.3984375 141.34765625 C-8.07625244 142.4452124 -8.07625244 142.4452124 -7.74755859 143.56494141 C-0.52122016 167.65791637 12.2144335 190.05296944 24.19921875 212.05859375 C26.24170397 215.80922714 28.24402771 219.57000836 30.16015625 223.38671875 C34.98948939 232.97534925 40.65576127 241.15550564 47.6015625 249.34765625 C45.41831009 251.53090866 43.65748124 252.28949839 40.8515625 253.53515625 C33.62634314 257.14776593 30.11834871 261.2034747 27.2890625 268.78515625 C25.6079293 275.0128641 25.31334916 280.91764048 25.16015625 287.34765625 C24.75076566 299.63519877 23.50996502 311.71833145 21.9765625 323.91015625 C21.84695129 324.96262543 21.71734009 326.0150946 21.58380127 327.09945679 C19.5660849 343.4786473 17.34927581 359.82877935 14.9765625 376.16015625 C14.83675964 377.14235138 14.69695679 378.12454651 14.55291748 379.13650513 C11.87802744 397.80818241 8.8491541 417.16256394 -6.35546875 430 C-12.74709043 434.66031043 -19.90955596 437.00296978 -27.3984375 439.34765625 C-28.59855469 439.74339844 -29.79867187 440.13914062 -31.03515625 440.546875 C-43.00037744 444.17077302 -56.17576234 445.79562257 -67.9765625 440.6640625 C-80.33954234 433.94418475 -87.62497072 422.98584644 -91.78466797 409.68994141 C-97.70893123 387.08159546 -96.43547138 362.14875503 -96.609375 338.9453125 C-96.61654478 338.03717112 -96.62371456 337.12902973 -96.63110161 336.19336891 C-96.69836826 327.6612792 -96.76274751 319.12920457 -96.79980469 310.59692383 C-96.82080314 305.88123649 -96.85609468 301.16583739 -96.90056229 296.45031548 C-96.9146206 294.67428405 -96.92342146 292.89820218 -96.92661667 291.122118 C-96.95042505 279.19228145 -97.21179776 269.05314524 -105.18359375 259.4296875 C-111.69691382 253.30693689 -119.61016591 250.64059864 -128.3984375 250.34765625 C-127.92702064 243.07561467 -125.56065751 237.09989168 -122.7734375 230.41015625 C-122.32411865 229.30929687 -121.8747998 228.2084375 -121.41186523 227.07421875 C-120.0843187 223.82768441 -118.74393763 220.58678531 -117.3984375 217.34765625 C-116.69397956 215.64845029 -115.98954933 213.94923285 -115.28515625 212.25 C-114.97497559 211.50218262 -114.66479492 210.75436523 -114.34521484 209.98388672 C-107.04579001 192.34999183 -103.81312511 176.03008616 -103.9609375 156.97265625 C-103.96364655 156.14948914 -103.96635559 155.32632202 -103.96914673 154.47821045 C-104.07809015 132.52465243 -104.36513951 102.25022944 -120.3984375 85.34765625 C-132.02873214 75.35753137 -145.55689066 75.27680171 -160.20410156 76.04589844 C-173.48703479 77.30069097 -185.87413121 82.89862392 -197.3984375 89.34765625 C-197.11502358 85.34257006 -196.76902115 81.3455999 -196.3984375 77.34765625 C-196.29917969 76.23777344 -196.19992188 75.12789063 -196.09765625 73.984375 C-193.07297038 46.51778314 -182.68629337 19.89873094 -165.3984375 -1.65234375 C-164.6146875 -2.70421875 -163.8309375 -3.75609375 -163.0234375 -4.83984375 C-151.96938392 -16.68347258 -137.74107815 -24.74269874 -122.3984375 -29.65234375 C-121.42777344 -29.97203125 -120.45710938 -30.29171875 -119.45703125 -30.62109375 C-78.87484847 -41.59199673 -31.43869248 -25.94079306 0 0 Z " fill="#336791" transform="translate(359.3984375,53.65234375)"/>
<path d="M0 0 C-1.41643452 3.20299264 -3.14127782 5.36084202 -5.5625 7.875 C-19.60435996 23.51080082 -28.59551048 43.86358152 -34 64 C-34.34417969 65.15113281 -34.68835938 66.30226563 -35.04296875 67.48828125 C-42.07911024 92.58654839 -42.53433468 118.20844099 -42.15808105 144.04022217 C-42.06974159 150.27499988 -42.01158327 156.5099767 -41.9659996 162.7451973 C-41.94612134 164.87430505 -41.91204636 167.00279734 -41.87600708 169.13168335 C-41.77354434 177.43004989 -42.3755751 185.40387323 -43.53161621 193.60649109 C-46.39190298 214.32968616 -41.1765357 235.90392645 -29 253 C-26.7209622 255.69865794 -24.37743519 258.30247938 -21.953125 260.87109375 C-20 263 -20 263 -18 266 C-21.68966407 270.30027749 -25.46181943 274.51210564 -29.32763672 278.65405273 C-34.36292661 284.0508221 -39.155526 289.55157856 -43.78125 295.30859375 C-46.93676483 299.13632213 -50.28372706 302.77449061 -53.64453125 306.421875 C-55.74810664 308.72429583 -57.78785037 311.06589306 -59.8125 313.4375 C-64.81949628 319.17150745 -69.49121707 322.90731519 -77.25 323.5 C-83.03364826 323.3465367 -86.66229279 320.59920867 -91 317 C-91.65742187 316.45472656 -92.31484375 315.90945313 -92.9921875 315.34765625 C-113.51673087 296.51288452 -123.1510426 265.50751668 -132 240 C-132.40283203 238.86884766 -132.80566406 237.73769531 -133.22070312 236.57226562 C-143.65743452 207.24686981 -151.88129013 176.89079855 -157.40673828 146.25292969 C-158.1102308 142.39559044 -158.84929814 138.54567489 -159.58984375 134.6953125 C-160.14441723 131.79710117 -160.69730886 128.89857079 -161.25 126 C-161.3813736 125.31355408 -161.51274719 124.62710815 -161.64810181 123.91986084 C-168.14995781 89.82505043 -167.58954623 53.35760662 -149 23 C-146.83228047 19.83512949 -144.51949233 16.89084607 -142 14 C-141.50371094 13.40960938 -141.00742188 12.81921875 -140.49609375 12.2109375 C-129.87597079 0.55275741 -113.30187336 -7.03834709 -98 -10 C-97.17886719 -10.18304687 -96.35773438 -10.36609375 -95.51171875 -10.5546875 C-63.35323401 -16.77341435 -30.86618391 -8.3759275 0 0 Z " fill="#336791" transform="translate(189,34)"/>
<path d="M0 0 C0.95648438 0.52980469 1.91296875 1.05960938 2.8984375 1.60546875 C18.36623131 10.79088883 35.01013448 25.08637484 40.52392578 42.67089844 C44.45908071 61.92288719 41.09586037 85.12966415 37 104 C36.65533533 105.75477438 36.31286925 107.5099821 35.97265625 109.265625 C29.10985633 143.22140152 16.01026212 176.92694473 1 208 C0.63664551 208.75313477 0.27329102 209.50626953 -0.10107422 210.28222656 C-2.00620354 214.2055709 -3.95955576 218.10142807 -5.95800781 221.97802734 C-6.69799908 223.41397103 -7.43390829 224.85202159 -8.16699219 226.29150391 C-12.48154364 234.75466251 -16.88525537 243.13695577 -21.9375 251.1875 C-22.30286865 251.78191895 -22.6682373 252.37633789 -23.04467773 252.98876953 C-24.08984375 254.60546875 -24.08984375 254.60546875 -26 257 C-26.99 257 -27.98 257 -29 257 C-29.33 256.34 -29.66 255.68 -30 255 C-29.18006709 253.02917945 -28.26618856 251.09718629 -27.3125 249.1875 C-20.93656195 235.7980301 -18.8036561 223.38056356 -18.8125 208.625 C-18.81258057 207.37654297 -18.81266113 206.12808594 -18.81274414 204.84179688 C-18.8707681 195.40649023 -19.64483007 186.32067255 -21 177 C-22.8140785 161.74977968 -22.72428497 146.7847392 -19.734375 131.7265625 C-18.76157269 126.7901082 -18.21759819 122.02289152 -18 117 C-17.93522461 115.84588623 -17.93522461 115.84588623 -17.86914062 114.66845703 C-17.17679053 101.14003649 -18.17942463 90.2715844 -24 78 C-24.41862305 77.1116748 -24.83724609 76.22334961 -25.26855469 75.30810547 C-34.15915869 56.7875868 -45.1610375 40.17584741 -59 25 C-59.4527832 24.50193848 -59.90556641 24.00387695 -60.37207031 23.49072266 C-74.61087655 8.05280624 -92.50814494 -5.05137339 -112 -13 C-90.21133295 -34.78866705 -22.53267291 -12.69052346 0 0 Z " fill="#346791" transform="translate(444,33)"/>
<path d="M0 0 C1.34771484 -0.03673828 1.34771484 -0.03673828 2.72265625 -0.07421875 C9.83629303 -0.10528267 14.97278116 1.46452473 20.48828125 6.015625 C27.32738806 14.32745983 28.67505407 24.04047471 30.5 34.375 C30.81324219 35.98375 30.81324219 35.98375 31.1328125 37.625 C36.37491918 68.92997512 31.27960526 96.888147 18.8840332 125.46704102 C14.37389412 135.89053655 10.11956035 146.29974254 7.5 157.375 C-6.77656596 158.34290278 -18.80012075 152.29949602 -29.5625 143.375 C-41.45706712 132.17241241 -48.91642835 116.15036237 -49.61132812 99.74707031 C-49.70210744 93.65893583 -49.26696465 87.82242671 -48.43286133 81.79785156 C-45.38494876 59.45680714 -46.22972575 36.86736206 -46.5 14.375 C-44.14556686 13.26468256 -41.78994449 12.15701598 -39.43359375 11.05078125 C-38.77629272 10.74047974 -38.1189917 10.43017822 -37.44177246 10.11047363 C-25.21193892 4.37762153 -13.62859178 0.01955322 0 0 Z " fill="#346791" transform="translate(208.5,143.625)"/>
<path d="M0 0 C1.37285156 0.0009668 1.37285156 0.0009668 2.7734375 0.00195312 C7.41407566 0.03213069 11.81152146 0.23993386 16.375 1.1875 C16.71328321 8.29144742 15.9049054 14.74276172 14.5300293 21.68139648 C11.11392392 39.26508679 11.57271388 57.38019862 13.875 75.0625 C16.46180249 95.30585665 17.23185797 114.07622386 9.375 133.1875 C6.05959175 130.44948716 4.53291063 126.78290433 2.71875 122.98828125 C-0.03069498 117.36236413 -2.85715349 111.79681845 -5.84375 106.29296875 C-6.55183102 104.98433323 -7.25983837 103.67565784 -7.96777344 102.36694336 C-8.32093628 101.7143454 -8.67409912 101.06174744 -9.03796387 100.38937378 C-15.5848154 88.25748077 -21.87552583 76.15782481 -26.625 63.1875 C-26.87137207 62.51493164 -27.11774414 61.84236328 -27.37158203 61.14941406 C-28.91439354 56.86440295 -30.3050872 52.54721196 -31.625 48.1875 C-31.9446875 47.1871875 -32.264375 46.186875 -32.59375 45.15625 C-35.61878326 34.736691 -36.68217069 23.05543631 -31.625 13.1875 C-26.68704946 6.06154716 -21.39188726 2.66988032 -12.96362305 0.60644531 C-8.65853842 -0.16477561 -4.36011543 -0.05883678 0 0 Z " fill="#356892" transform="translate(395.625,140.8125)"/>
<path d="M0 0 C4.77116198 1.71761831 8.66389673 4.70111676 11.3046875 9.08203125 C12.63830389 12.40337112 12.66615993 15.64128298 12.125 19.125 C10.5 22.1875 10.5 22.1875 8.125 25.125 C7.7125 25.67929687 7.3 26.23359375 6.875 26.8046875 C-1.10942355 37.01204716 -13.23666212 42.95726671 -25.875 45.125 C-52.68857345 46.91175007 -52.68857345 46.91175007 -63.875 41.125 C-65.6953125 39.48828125 -65.6953125 39.48828125 -66.875 38.125 C-61.5148966 36.15022506 -56.37923588 34.80693915 -50.75 33.8125 C-33.35201775 30.42373639 -22.36215469 23.29302967 -11.76660156 9.04882812 C-5.15038744 0.22392989 -5.15038744 0.22392989 0 0 Z " fill="#366992" transform="translate(235.875,318.875)"/>
<path d="M0 0 C7.90431238 2.79865606 16.29325715 2.33919036 24.578125 2.34375 C25.73763672 2.35599609 26.89714844 2.36824219 28.09179688 2.38085938 C34.57929934 2.39179951 40.63045133 1.95520889 46.98046875 0.59936523 C49.76894881 0.05865035 52.43368534 0.00317218 55.265625 0.15625 C40.97767424 15.25690988 19.87301117 20.83119815 -0.3515625 21.40625 C-2.68737743 21.43797777 -5.02336571 21.45881854 -7.359375 21.46875 C-9.0314502 21.47708862 -9.0314502 21.47708862 -10.73730469 21.4855957 C-16.44607866 21.43501054 -21.34901733 21.09281845 -26.734375 19.15625 C-27.51007263 6.0340317 -27.51007263 6.0340317 -22.734375 0.15625 C-13.9219237 -6.37297528 -9.22032879 -4.15156165 0 0 Z " fill="#376A93" transform="translate(426.734375,321.84375)"/>
<path d="M0 0 C3.69646171 1.15455038 7.05371603 2.45033118 10 5 C10.8984375 7.4765625 10.8984375 7.4765625 11 10 C8.2323625 14.15145625 5.9979035 16.83769686 1 18 C-3.77785408 18.45503372 -5.98027525 18.52947247 -10.25 16.3125 C-16.69747899 10.8907563 -16.69747899 10.8907563 -17.5 5.875 C-17 3 -17 3 -15.3515625 1.3515625 C-10.6478639 -1.35189218 -5.23342338 -0.64070515 0 0 Z " fill="#F9FBFC" transform="translate(218,152)"/>
<path d="M0 0 C0.78375 0.495 1.5675 0.99 2.375 1.5 C1.94034864 6.42604873 -0.22126975 9.01891224 -3.625 12.5 C-7.46281134 14.95193502 -11.09018117 14.72237464 -15.46875 14.109375 C-18.89338368 13.14154374 -20.54096045 11.30042815 -22.625 8.5 C-23.4375 6.1875 -23.4375 6.1875 -23.625 4.5 C-16.47924587 -1.62493211 -8.9526285 -3.70453593 0 0 Z " fill="#F6F8FA" transform="translate(395.625,149.5)"/>
</svg>
