<?xml version="1.0" encoding="UTF-8"?>
<svg version="1.1" xmlns="http://www.w3.org/2000/svg" width="248" height="300">
<path d="M0 0 C7.404284 5.16577953 10.45791133 13.06028643 14.1875 21 C14.80765152 22.30376032 15.42843166 23.6072218 16.04980469 24.91040039 C20.60322434 34.48308009 25.06747172 44.09803654 29.51196289 53.72167969 C34.15236272 63.76165347 38.88132623 73.75846573 43.625 83.75 C49.0363722 95.14996685 54.42535969 106.55925012 59.75 118 C64.81944099 128.89154366 69.92840989 139.7637788 75.0625 150.625 C75.78157916 152.14648265 76.50065469 153.66796703 77.21972656 155.18945312 C78.29976357 157.47460366 79.37981975 159.75974512 80.45993042 162.04486084 C82.94244917 167.29732793 85.42349484 172.55048741 87.90234375 177.8046875 C88.24469055 178.53017792 88.58703735 179.25566833 88.9397583 180.00314331 C90.62643686 183.57954784 92.30911094 187.15775087 93.98388672 190.73974609 C94.63110323 192.1234106 95.27840047 193.50703735 95.92578125 194.890625 C96.39766876 195.8993718 96.39766876 195.8993718 96.87908936 196.92849731 C98.70383524 200.81704365 100.56359896 204.68584491 102.46122742 208.53933716 C103.33736415 210.32252695 104.20237482 212.11116959 105.06713867 213.89990234 C106.10457338 216.044799 107.15920786 218.18151331 108.2355957 220.30712891 C111.53353674 227.19971556 112.70446978 233.23642701 111.6875 240.875 C108.98573284 246.47866522 105.06927688 249.89010682 99.33398438 252.26171875 C97.98712742 252.7077475 96.63577109 253.14031768 95.28125 253.5625 C94.50978638 253.81104736 93.73832275 254.05959473 92.94348145 254.31567383 C80.81285571 258.17322328 68.57135641 261.68284095 56.35124588 265.24433899 C49.58587073 267.21622412 42.82185236 269.19274373 36.05859375 271.171875 C35.2805583 271.39941216 34.50252285 271.62694931 33.70091057 271.86138153 C22.04114191 275.27367159 10.40626298 278.76270038 -1.21627426 282.29960632 C-6.26847561 283.83538391 -11.32341501 285.36213662 -16.3781414 286.88957977 C-21.24350834 288.3612566 -26.10379842 289.84842471 -30.96103573 291.34669876 C-34.00269118 292.28075485 -37.04876442 293.19970476 -40.0961628 294.11483002 C-41.5005965 294.53995921 -42.90317985 294.97126338 -44.3035717 295.40952301 C-53.85982941 298.39607047 -65.21656255 301.86919224 -74.70703125 297.00390625 C-79.35324249 293.53231947 -82.08680658 288.73493943 -85 283.8125 C-86.21763643 281.8274415 -87.43641158 279.84308111 -88.65625 277.859375 C-89.2646875 276.85841797 -89.873125 275.85746094 -90.5 274.82617188 C-93.24931324 270.34964999 -96.12067429 265.95608026 -99 261.5625 C-100.0810901 259.90388104 -101.16182499 258.24503048 -102.2421875 256.5859375 C-102.76006836 255.79155273 -103.27794922 254.99716797 -103.81152344 254.17871094 C-110.47285224 243.95484976 -117.08306668 233.69786163 -123.67294312 223.42782593 C-124.72465053 221.78948909 -125.77795514 220.15217788 -126.83129883 218.51489258 C-128.11740812 216.50815556 -129.39407589 214.49532534 -130.65966797 212.47558594 C-131.62415694 210.95804731 -132.61632824 209.45629524 -133.67236328 208.00097656 C-137.31031894 202.71085588 -137.29564797 197.00801693 -136.3125 190.875 C-134.84234125 187.0347964 -132.81137531 183.74374763 -130.5625 180.3125 C-129.97122314 179.36342773 -129.37994629 178.41435547 -128.77075195 177.43652344 C-126.9756248 174.56642824 -125.1468268 171.72015044 -123.3125 168.875 C-122.31909372 167.29976403 -121.3280466 165.72303673 -120.33984375 164.14453125 C-118.41407216 161.07442222 -116.47499287 158.01330342 -114.52734375 154.95703125 C-108.70179127 145.78538943 -103.05967119 136.49827121 -97.37695312 127.23779297 C-94.02677227 121.78067481 -90.66934471 116.32802054 -87.3125 110.875 C-85.97913032 108.7083557 -84.64579703 106.54168901 -83.3125 104.375 C-80.64583333 100.04166667 -77.97916667 95.70833333 -75.3125 91.375 C-74.32213745 89.76564575 -74.32213745 89.76564575 -73.31176758 88.1237793 C-71.98091199 85.96115928 -70.65002017 83.79856155 -69.3190918 81.63598633 C-65.94754875 76.15758992 -62.57667261 70.67878508 -59.20703125 65.19921875 C-44.01731363 40.5012124 -44.01731363 40.5012124 -39.04541016 32.5300293 C-36.27253938 28.07902368 -33.55380194 23.60428408 -30.8984375 19.08203125 C-30.04511841 17.64984253 -30.04511841 17.64984253 -29.17456055 16.1887207 C-28.09329299 14.37189484 -27.02596236 12.546668 -25.97583008 10.71166992 C-19.84947328 0.49840801 -11.712898 -3.97796536 0 0 Z M-4.91663361 38.06091309 C-6.65814543 40.3242055 -7.06992242 42.10474168 -7.6463623 44.90039062 C-7.86700033 45.94238554 -8.08763836 46.98438046 -8.31496239 48.05795097 C-8.54553652 49.20413965 -8.77611065 50.35032833 -9.01367188 51.53125 C-9.26678949 52.7429442 -9.51990711 53.9546384 -9.78069496 55.20305061 C-10.47818406 58.55313121 -11.16543031 61.90502131 -11.84846735 65.25805902 C-12.579191 68.83236785 -13.32314987 72.40392076 -14.06564331 75.97579956 C-15.49951472 82.88370403 -16.92169523 89.79396303 -18.3397938 96.70512068 C-20.13358111 105.44478762 -21.94095986 114.18163334 -23.74853516 122.91845703 C-24.40686706 126.10120649 -25.06508577 129.28397934 -25.72323608 132.46676636 C-25.88598168 133.25375825 -26.04872728 134.04075014 -26.21640456 134.85159028 C-27.36891226 140.42598124 -28.51897144 146.00087422 -29.66812134 151.57595825 C-33.32979114 169.33621201 -37.02454944 187.0887233 -40.78250885 204.82891083 C-41.47881304 208.11653944 -42.17381496 211.40444048 -42.86834717 214.69244385 C-43.30870342 216.77673602 -43.74907181 218.86102563 -44.18945312 220.9453125 C-44.50550695 222.44118708 -44.50550695 222.44118708 -44.82794571 223.96728134 C-45.85485696 228.82424068 -46.88523326 233.68042016 -47.92260742 238.53515625 C-48.87615813 242.99805739 -49.82091644 247.46272564 -50.75873184 251.92895889 C-51.09633525 253.52823079 -51.43737218 255.12678255 -51.78219223 256.72451401 C-52.24446603 258.86778609 -52.69475932 261.0132355 -53.14208984 263.15966797 C-53.39437347 264.34591766 -53.6466571 265.53216736 -53.90658569 266.75436401 C-54.3059991 269.82502162 -54.18812603 271.92324612 -53.3125 274.875 C-52.17656265 276.23343105 -52.17656265 276.23343105 -49.16670227 276.04685974 C-45.3347894 275.87599389 -42.30708662 275.23133798 -38.64526367 274.12524414 C-38.01452627 273.93763834 -37.38378887 273.75003254 -36.73393822 273.55674171 C-34.64664279 272.93350348 -32.56370531 272.29681726 -30.48046875 271.66015625 C-28.98862473 271.21214745 -27.49650654 270.76505074 -26.00413513 270.31880188 C-21.99642971 269.11799959 -17.99222977 267.90589131 -13.98865509 266.69139862 C-7.3028758 264.66604774 -0.61111435 262.66045427 6.07935333 260.65065765 C8.62989504 259.88407346 11.18003809 259.11617306 13.73016357 258.34820557 C23.88765613 255.29276775 34.06006978 252.29599451 44.25561333 249.37004662 C46.31864903 248.7778577 48.38120532 248.18402795 50.44361877 247.5896759 C60.71494623 244.6310477 60.71494623 244.6310477 65.81900024 243.18777466 C69.28633266 242.20679156 72.74890865 241.2104467 76.2109375 240.2109375 C77.22410538 239.92954422 78.23727325 239.64815094 79.28114319 239.35823059 C86.00322037 237.61331645 86.00322037 237.61331645 90.6875 232.875 C90.5692955 227.95705181 89.15871201 224.19370631 86.984375 219.83203125 C86.42322998 218.69113037 85.86208496 217.55022949 85.28393555 216.37475586 C84.98369476 215.77533173 84.68345398 215.17590759 84.37411499 214.55831909 C82.75138805 211.31704218 81.16187296 208.05944356 79.56640625 204.8046875 C79.23852615 204.13817673 78.91064606 203.47166595 78.5728302 202.78495789 C75.40764063 196.33976136 72.37877463 189.83437146 69.375 183.3125 C64.38973433 172.51455464 59.337152 161.75028556 54.25 151 C48.74768782 139.37024152 43.27396473 127.7280453 37.84454346 116.06408691 C32.62009865 104.84327155 27.33937724 93.64948601 22.04196167 82.46295166 C18.25703912 74.46992217 14.48741024 66.47102002 10.7890625 58.4375 C10.48515091 57.77823517 10.18123932 57.11897034 9.86811829 56.43972778 C8.44637626 53.35424509 7.02973221 50.266685 5.62084961 47.17529297 C4.88233765 45.56871826 4.88233765 45.56871826 4.12890625 43.9296875 C3.70295166 42.99624512 3.27699707 42.06280273 2.83813477 41.10107422 C1.76636136 38.7515493 1.76636136 38.7515493 -0.3125 36.875 C-3.24292546 36.57776409 -3.24292546 36.57776409 -4.91663361 38.06091309 Z " fill="#000000" transform="translate(136.3125,1.125)"/>
</svg>
