<?xml version="1.0" standalone="no"?>
<!DOCTYPE svg PUBLIC "-//W3C//DTD SVG 20010904//EN"
 "http://www.w3.org/TR/2001/REC-SVG-20010904/DTD/svg10.dtd">
<svg version="1.0" xmlns="http://www.w3.org/2000/svg"
 width="512.000000pt" height="512.000000pt" viewBox="0 0 512.000000 512.000000"
 preserveAspectRatio="xMidYMid meet">
<metadata>
Created by potrace 1.14, written by Peter Selinger 2001-2017
</metadata>
<g transform="translate(0.000000,512.000000) scale(0.100000,-0.100000)"
fill="#000000" stroke="none">
<path d="M3990 4429 c-83 -19 -203 -69 -300 -124 -34 -19 -64 -35 -66 -35 -3
0 -17 -8 -32 -19 -15 -10 -76 -51 -137 -91 -60 -40 -164 -113 -230 -163 l-120
-89 -45 16 c-135 48 -321 79 -475 80 -814 1 -1471 -680 -1440 -1493 5 -150 39
-324 85 -445 9 -24 2 -37 -68 -132 -42 -58 -84 -115 -92 -127 -8 -13 -45 -65
-81 -117 -141 -201 -254 -413 -275 -515 -2 -11 -7 -33 -10 -50 -12 -53 -6
-159 12 -210 55 -162 202 -257 377 -242 187 16 475 162 822 415 39 29 81 60
94 69 14 10 33 25 44 34 19 15 27 14 107 -12 113 -37 259 -60 395 -63 829 -20
1507 669 1472 1495 -9 199 -18 255 -73 429 -3 8 12 36 33 61 43 52 52 64 132
176 32 45 62 79 66 75 5 -4 5 -2 2 5 -4 6 0 18 8 26 8 9 15 19 15 23 0 4 11
21 24 39 13 17 49 75 79 128 30 53 58 93 62 89 5 -4 5 -2 2 4 -4 7 0 25 8 40
8 16 15 35 15 42 0 6 5 12 10 12 6 0 9 3 8 8 -1 4 10 44 25 90 15 46 27 92 27
103 0 10 4 19 10 19 5 0 8 6 5 13 -2 6 -6 50 -9 97 -7 126 -27 175 -98 252
-91 97 -222 127 -388 87z m55 -446 c-6 -27 -72 -162 -112 -233 -32 -55 -94
-149 -151 -227 l-53 -73 -40 48 c-22 26 -72 77 -111 113 -39 37 -68 72 -64 77
24 39 488 322 528 322 6 0 7 -11 3 -27z m-2390 -2566 c-29 -25 -229 -157 -302
-200 -65 -37 -205 -107 -217 -107 -23 0 129 251 297 490 l31 45 106 -105 c103
-103 105 -105 85 -123z"/>
</g>
</svg>
